<svg viewBox="0 0 500 500" fill="none" xmlns="http://www.w3.org/2000/svg">
    <path class="bg" fill="#fff" d="M0 0h500v500H0z"/>
    <g class="shape">
        <path d="M388.135 224.387a30.75 30.75 0 0 0-20.268 8.486c-.127.113-.226.241-.34.354l-.24.283a26.073 26.073 0 0 0-1.895 2.065c-4.781 4.936-17.143 16.096-32.291 17.284-7.963-.311-14.781-7.822-14.781-7.822a15.01 15.01 0 0 0-16.564-3.676 15.003 15.003 0 0 0-9.406 14.122 15.013 15.013 0 0 0 9.778 13.867 15.003 15.003 0 0 0 16.461-4.115s6.549-7.242 14.512-7.553c15.77 1.174 28.288 13.097 32.46 17.524.368.425.736.821 1.118 1.217l.353.424a30.882 30.882 0 0 0 28.091 8.716 30.87 30.87 0 0 0 22.647-18.766 30.88 30.88 0 0 0-3.346-29.221 30.876 30.876 0 0 0-26.303-13.161l.014-.028z" fill="#F7A636"/>
        <path d="M192.353 240.27a14.984 14.984 0 0 0-10.721 5.05s-6.534 7.242-14.512 7.553c-15.77-1.174-28.288-13.098-32.46-17.525-.354-.424-.736-.82-1.103-1.216l-.368-.424a30.875 30.875 0 0 0-47.467 3.989 30.873 30.873 0 0 0-.638 34.213 30.88 30.88 0 0 0 31.317 13.791 30.873 30.873 0 0 0 15.967-8.034l.326-.353c.07-.094.146-.184.226-.269a33.34 33.34 0 0 0 1.91-2.079c4.766-4.937 17.128-16.096 32.276-17.284 7.978.311 14.781 7.821 14.781 7.821a15.007 15.007 0 1 0 10.452-25.247l.014.014z" fill="#F7A636"/>
        <path d="M214.885 200.356a14.92 14.92 0 0 0-11.16-4.017s-9.731.495-15.558-4.922c-10.326-11.98-10.764-29.292-10.566-35.36 0-.552 0-1.103.085-1.655v-.552a30.859 30.859 0 0 0-18.627-28.677 30.858 30.858 0 0 0-33.646 6.108 30.863 30.863 0 0 0 20.604 53.078h.849c.934 0 1.867 0 2.829-.113 6.874-.113 23.507.735 35.063 10.608 5.417 5.856 4.922 15.983 4.922 15.983a15.002 15.002 0 0 0 6.466 12.801 14.995 14.995 0 0 0 23.269-9.647 15 15 0 0 0-4.488-13.621l-.042-.014z" fill="#8A418B"/>
        <path d="M375.943 132.379a30.863 30.863 0 0 0-53.394 21.499v.566c0 .354 0 1.089.085 1.641.198 6.054-.24 23.366-10.566 35.36-5.841 5.417-15.558 4.922-15.558 4.922a15.01 15.01 0 0 0-14.513 8.766 15.007 15.007 0 1 0 28.657 5.718s-.495-10.127 4.922-15.983c11.556-9.901 28.175-10.721 35.049-10.608.934.085 1.867.113 2.829.113h.849a30.888 30.888 0 0 0 29.588-36.372 30.896 30.896 0 0 0-7.863-15.636l-.085.014z" fill="#8A418B"/>
        <path d="M374.543 335.799a30.87 30.87 0 0 0-20.325-8.345h-.835c-.933 0-1.867 0-2.828.113-6.874.114-23.494-.735-35.049-10.608-5.418-5.841-4.922-15.982-4.922-15.982a15.014 15.014 0 0 0-9.108-14.302 15.013 15.013 0 0 0-16.628 3.318 15.004 15.004 0 0 0-2.922 16.701 15.008 15.008 0 0 0 14.514 8.766s9.745-.495 15.558 4.922c10.325 11.98 10.764 29.279 10.566 35.36 0 .538-.071 1.09-.085 1.641-.014.552 0 .552 0 .552a30.868 30.868 0 0 0 13.702 26.021 30.874 30.874 0 0 0 41.345-6.451 30.867 30.867 0 0 0 5.124-28.958 30.868 30.868 0 0 0-8.178-12.776l.071.028z" fill="#8A418B"/>
        <path d="M215.564 290.284a14.99 14.99 0 0 0-23.546 2.131 14.985 14.985 0 0 0-2.38 8.618s.495 10.141-4.923 15.983c-11.555 9.901-28.189 10.721-35.063 10.608a31.045 31.045 0 0 0-2.828-.113h-.835a30.917 30.917 0 0 0-4.756 61.334 30.92 30.92 0 0 0 36.425-30.825v-.552c0-.354 0-1.103-.085-1.641-.198-6.068.24-23.366 10.565-35.36 5.856-5.417 15.559-4.922 15.559-4.922a15 15 0 0 0 8.565-2.071 14.998 14.998 0 0 0 7.155-15.251 14.987 14.987 0 0 0-3.882-7.911l.029-.028z" fill="#8A418B"/>
        <path d="M338.391 304.965c6.46 0 11.697-5.237 11.697-11.697 0-6.46-5.237-11.697-11.697-11.697-6.46 0-11.697 5.237-11.697 11.697 0 6.46 5.237 11.697 11.697 11.697z" fill="#FA664F"/>
        <path d="M278.038 108.731a30.887 30.887 0 0 0-14.178-24.978 30.896 30.896 0 0 0-28.612-2.51 30.884 30.884 0 0 0-18.31 22.128 30.89 30.89 0 0 0 7.819 27.637l.354.325.269.226c.665.665 1.414 1.301 2.079 1.895 4.936 4.781 16.096 17.143 17.284 32.291-.311 7.963-7.822 14.781-7.822 14.781a15.024 15.024 0 0 0-3.683 16.581 15.021 15.021 0 1 0 23.895-16.85s-7.242-6.549-7.553-14.512c1.174-15.77 13.098-28.288 17.525-32.46.424-.354.82-.736 1.216-1.104l.424-.367a30.75 30.75 0 0 0 9.293-23.083z" fill="#F28731"/>
        <path d="M269.58 369.066c-.113-.113-.241-.212-.354-.339l-.283-.227a32.765 32.765 0 0 0-2.065-1.909c-4.936-4.781-16.096-17.128-17.284-32.277.312-7.977 7.822-14.78 7.822-14.78a15.012 15.012 0 0 0 3.668-16.563 15.014 15.014 0 0 0-14.121-9.401 15.016 15.016 0 0 0-8.446 2.74 15.005 15.005 0 0 0-1.313 23.492s7.242 6.535 7.539 14.512c-1.174 15.771-13.112 28.288-17.525 32.461-.424.353-.82.721-1.216 1.103l-.424.368a30.86 30.86 0 0 0 21.007 52.917 30.858 30.858 0 0 0 28.816-18.408 30.858 30.858 0 0 0-5.849-33.689h.028z" fill="#F28731"/>
        <path d="M247.176 281.132c14.279 0 25.855-11.575 25.855-25.855 0-14.279-11.576-25.855-25.855-25.855-14.28 0-25.856 11.576-25.856 25.855 0 14.28 11.576 25.855 25.856 25.855z" fill="#F28731"/>
        <path d="M338.391 233.948c6.46 0 11.697-5.237 11.697-11.697 0-6.46-5.237-11.697-11.697-11.697-6.46 0-11.697 5.237-11.697 11.697 0 6.46 5.237 11.697 11.697 11.697z" fill="#FA664F"/>
        <path d="M285.577 177.4c6.46 0 11.697-5.237 11.697-11.697 0-6.46-5.237-11.697-11.697-11.697-6.46 0-11.697 5.237-11.697 11.697 0 6.46 5.237 11.697 11.697 11.697z" fill="#FA664F"/>
        <path d="M212.014 177.4c6.46 0 11.697-5.237 11.697-11.697 0-6.46-5.237-11.697-11.697-11.697-6.461 0-11.698 5.237-11.698 11.697 0 6.46 5.237 11.697 11.698 11.697z" fill="#FA664F"/>
        <path d="M167.432 233.948c6.46 0 11.697-5.237 11.697-11.697 0-6.46-5.237-11.697-11.697-11.697-6.461 0-11.698 5.237-11.698 11.697 0 6.46 5.237 11.697 11.698 11.697z" fill="#FA664F"/>
        <path d="M164.207 304.965c6.46 0 11.697-5.237 11.697-11.697 0-6.46-5.237-11.697-11.697-11.697-6.46 0-11.697 5.237-11.697 11.697 0 6.46 5.237 11.697 11.697 11.697z" fill="#FA664F"/>
        <path d="M212.014 349.095c6.46 0 11.697-5.237 11.697-11.697 0-6.46-5.237-11.697-11.697-11.697-6.461 0-11.698 5.237-11.698 11.697 0 6.46 5.237 11.697 11.698 11.697z" fill="#FA664F"/>
        <path d="M285.577 349.095c6.46 0 11.697-5.237 11.697-11.697 0-6.46-5.237-11.697-11.697-11.697-6.46 0-11.697 5.237-11.697 11.697 0 6.46 5.237 11.697 11.697 11.697z" fill="#FA664F"/>
    </g>
</svg>